<?xml version="1.0" ?><svg id="Layer_1" style="enable-background:new 0 0 128 128;" version="1.1" viewBox="0 0 128 128" xml:space="preserve" xmlns="http://www.w3.org/2000/svg" xmlns:xlink="http://www.w3.org/1999/xlink"><style type="text/css">
	.st0{fill-rule:evenodd;clip-rule:evenodd;}
	.st1{fill-rule:evenodd;clip-rule:evenodd;fill:#7ACED7;}
</style><g id="XMLID_7_"><path class="st0" d="M106.6,21.5C130,45,130,83,106.6,106.4c-23.4,23.4-61.4,23.4-84.9,0C-1.7,83-1.7,45,21.8,21.5   C45.2-1.9,83.2-1.9,106.6,21.5L106.6,21.5z M109.4,18.7c-25-25-65.5-25-90.5,0s-25,65.5,0,90.5s65.5,25,90.5,0   S134.4,43.7,109.4,18.7L109.4,18.7z M52.2,52H32.9c-6.6,0-12,5.4-12,12c0,6.6,5.4,12,12,12h19.3v19.3c0,6.6,5.4,12,12,12   c6.6,0,12-5.4,12-12V76h19.3c6.6,0,12-5.4,12-12c0-6.6-5.4-12-12-12H76.2V32.7c0-6.6-5.4-12-12-12c-6.6,0-12,5.4-12,12V52L52.2,52z    M32.9,56c-4.4,0-8,3.6-8,8c0,4.4,3.6,8,8,8h23.3v23.3c0,4.4,3.6,8,8,8c4.4,0,8-3.6,8-8V72h23.3c4.4,0,8-3.6,8-8c0-4.4-3.6-8-8-8   H72.2V32.7c0-4.4-3.6-8-8-8c-4.4,0-8,3.6-8,8V56H32.9z" id="XMLID_9_"/><path class="st1" d="M32.9,56h23.3V32.7c0-4.4,3.6-8,8-8c4.4,0,8,3.6,8,8V56h23.3c4.4,0,8,3.6,8,8c0,4.4-3.6,8-8,8   H72.2v23.3c0,4.4-3.6,8-8,8c-4.4,0-8-3.6-8-8V72H32.9c-4.4,0-8-3.6-8-8C24.9,59.6,28.5,56,32.9,56z" id="XMLID_1_"/></g></svg>